inDegrees=yes
name=ik_coleta2_trike_10hz_mov
DataType=double
version=3
OpenSimVersion=4.4-2022-07-23-0e9fedc
endheader
time	hip_flexion_r	knee_angle_r	hip_flexion_l	knee_angle_l	gearToGround_coord_0
35.02445006370544	97.25849302042106	-102.6301594324648	99.45758027229236	-72.55458545234875	-1288.244748423159
35.03945207595825	97.5480228726671	-102.8709705067966	98.99193271375624	-72.06031450346721	-1289.314164504523
35.04536700248718	97.8352744940311	-103.1964929693521	98.74775137939129	-71.73283901747364	-1290.096258383371
35.05137085914612	98.20265881906029	-103.6065936555748	98.34154063089039	-71.29081246537726	-1291.123797539297
35.05542397499084	98.59418483105243	-104.0356852475378	97.8174942664028	-70.77378686887965	-1292.19844922479
35.06136107444763	99.00908694419684	-104.481861572113	97.40655264482258	-70.32517168113084	-1293.328940305296
35.06837105751038	99.46439019998387	-104.9615729450702	96.96546688830037	-69.83789169379091	-1294.561352539692
35.07537913322449	99.91999959932964	-105.4312887360081	96.49512061835816	-69.33335257296352	-1295.785535823339
35.08537483215332	100.4117860203774	-105.9265024267545	95.87523151624018	-68.69151889060163	-1297.097664030146
35.09138298034668	101.0006207069405	-106.505069073349	95.39374859969872	-68.17494478790148	-1298.663450682112
35.09536099433899	101.850580215052	-107.3105106645182	94.53861660461995	-67.29680543020163	-1300.904227623532
35.09937191009521	103.1251452276731	-108.4551380059283	93.13878554011028	-65.89123173867407	-1304.231634945735
35.10845518112183	104.8670296252051	-109.8994265978458	91.60372409328987	-64.43415557278036	-1308.743670364782
35.12140512466431	106.9369807191632	-111.4378627772832	89.77908195952588	-62.74620343966316	-1314.085808014701
35.12538695335388	109.0719517209164	-112.821297518473	87.92965605509775	-61.12273035557156	-1319.637253746563
35.13136887550354	110.9552957363003	-113.8643225044853	86.38733399782518	-59.96651509386896	-1324.630517421703
35.1404139995575	112.3853159429323	-114.5380771602395	84.95196059184232	-58.8481906515411	-1328.528198019591
35.14636611938477	113.4244805850008	-114.9584496982974	84.46986255705937	-58.77011495239287	-1331.444993852157
35.15037512779236	114.265347288906	-115.2524276258367	83.8329062425894	-58.44498861513627	-1333.866803141756
35.15442085266113	115.0709771714459	-115.4918477446288	83.21950952629643	-58.15780841638242	-1336.263430361654
35.16040992736816	115.8626254526871	-115.6830399758213	82.44125273233026	-57.46664666740119	-1338.70041692801
35.16836810112	116.5828983508459	-115.8147925471425	82.16736025103341	-57.67199409389521	-1340.998893033843
35.17537093162537	117.2137416758575	-115.8931547812188	81.54255420596859	-57.45628801300051	-1343.09595570844
35.18037796020508	117.8414498789677	-116.0914899855511	81.35758813123826	-57.55005083202714	-1344.500288605391
35.18942713737488	118.3971334226566	-116.2429784653281	81.13850008274831	-57.62864394823913	-1346.47766275358
35.19838404655457	118.8386138155009	-116.2259729059581	80.86032123335529	-57.65186113188852	-1348.09989178193
35.20837903022766	119.2452116949102	-116.1872520406637	80.60171518838609	-57.66049948250694	-1349.650767545055
35.21337890625	119.642465511425	-116.1241763037756	80.35806791109225	-57.72360524450804	-1351.237733077659
35.21738314628601	120.0371847715595	-116.0340601982197	80.11713207764406	-57.80677557304274	-1352.891095896353
35.22536897659302	120.447231809687	-115.9060667570787	79.8615897535341	-57.9084735222842	-1354.709333606418
35.22936487197876	120.8778005327978	-115.7259843842223	79.58446309481677	-58.04209070566812	-1356.75733626542
35.23337316513062	121.3074954695908	-115.4873340726218	79.29089102056766	-58.20894447444744	-1358.985561324148
35.23741006851196	121.7072469190182	-115.1954120009178	78.99131983822144	-58.40876740803105	-1361.283038897368
35.24238085746765	122.0575101867896	-114.8618275882448	78.69923178786119	-58.68343358788219	-1363.54875717196
35.2493748664856	122.367249397893	-114.4787790681021	78.58286282700593	-59.12349517661863	-1365.844935773295
35.25337600708008	122.6431958434598	-114.0273771525006	78.46316151717062	-59.62921065215291	-1368.264937450489
35.25739002227783	122.8745172451752	-113.5079106583471	78.59010744830287	-60.47888292284735	-1370.777330636682
35.26136803627014	123.0447746621398	-112.9562689123357	78.30421154306264	-60.82834909044203	-1373.213297752043
35.26637196540833	123.1575969666267	-112.386843726307	78.28914878333336	-61.49006204593185	-1375.539185357728
35.27242112159729	123.2258225283744	-111.7125895499639	78.31056995748671	-62.22231359681633	-1378.100119747424
35.27638387680054	123.228074312509	-110.7828708815798	78.66820449916827	-63.56620923672234	-1381.372787303583
35.28637504577637	123.0984800021442	-109.5156472057943	78.74912186808839	-64.78869595477173	-1385.471426807853
35.29044079780579	122.793496886374	-108.0107602329655	78.86728029646181	-66.27233652389158	-1389.946643547059
35.296382188797	122.3569342854318	-106.4909525456851	79.26231854834566	-68.04000033568681	-1394.146275802285
35.30237102508545	121.8938000691201	-105.1707459681715	79.59445723744295	-69.37766712880354	-1397.600100160772
